<svg width="43" height="42" viewBox="0 0 43 42" fill="none" xmlns="http://www.w3.org/2000/svg">
<path d="M23.5833 37.75V41.9167H19.4167V37.75H2.75001C1.59942 37.75 0.666672 36.8173 0.666672 35.6667V2.33333C0.666672 1.18275 1.59942 0.25 2.75001 0.25H15.25C17.739 0.25 19.9731 1.34115 21.5 3.07121C23.0269 1.34115 25.261 0.25 27.75 0.25H40.25C41.4006 0.25 42.3333 1.18275 42.3333 2.33333V35.6667C42.3333 36.8173 41.4006 37.75 40.25 37.75H23.5833ZM38.1667 33.5833V4.41667H27.75C25.4488 4.41667 23.5833 6.28215 23.5833 8.58333V33.5833H38.1667ZM19.4167 33.5833V8.58333C19.4167 6.28215 17.5513 4.41667 15.25 4.41667H4.83334V33.5833H19.4167Z" fill="#0F218B"/>
</svg>
