<svg width="44" height="40" viewBox="0 0 44 40" fill="none" xmlns="http://www.w3.org/2000/svg">
<path d="M37.4268 14.2562L36.9336 15.3876C36.5728 16.2158 35.4272 16.2158 35.0662 15.3876L34.5732 14.2562C33.6942 12.2389 32.111 10.6328 30.1354 9.75416L28.616 9.07844C27.7946 8.71306 27.7946 7.51762 28.616 7.15224L30.0504 6.51428C32.0768 5.61302 33.6884 3.94746 34.5522 1.86166L35.0586 0.639062C35.4116 -0.213021 36.5884 -0.213021 36.9412 0.639062L37.4476 1.86166C38.3116 3.94746 39.9232 5.61302 41.9496 6.51428L43.3838 7.15224C44.2054 7.51762 44.2054 8.71306 43.3838 9.07844L41.8646 9.75416C39.889 10.6328 38.3058 12.2389 37.4268 14.2562ZM0 6C0 4.89544 0.89544 4 2 4H24V8H4V36H36V20H40V38C40 39.1046 39.1046 40 38 40H2C0.89544 40 0 39.1046 0 38V6ZM10 24H14V32H10V24ZM18 12H22V32H18V12ZM26 18H30V32H26V18Z" fill="white"/>
</svg>
