<svg width="36" height="36" viewBox="0 0 36 36" fill="none" xmlns="http://www.w3.org/2000/svg">
<path d="M6 4C4.89544 4 4 4.89544 4 6C4 7.10456 4.89544 8 6 8C7.10456 8 8 7.10456 8 6C8 4.89544 7.10456 4 6 4ZM0 6C0 2.6863 2.6863 0 6 0C9.3137 0 12 2.6863 12 6C12 8.61244 10.3304 10.8349 8 11.6586V12C8 14.2092 9.79086 16 12 16H24C26.2092 16 28 14.2092 28 12V11.6586C25.6696 10.8349 24 8.61244 24 6C24 2.6863 26.6862 0 30 0C33.3138 0 36 2.6863 36 6C36 8.61244 34.3304 10.8349 32 11.6586V12C32 16.4182 28.4182 20 24 20H20V24.3414C22.3304 25.165 24 27.3876 24 30C24 33.3138 21.3138 36 18 36C14.6862 36 12 33.3138 12 30C12 27.3876 13.6696 25.165 16 24.3414V20H12C7.58172 20 4 16.4182 4 12V11.6586C1.66962 10.8349 0 8.61244 0 6ZM30 4C28.8954 4 28 4.89544 28 6C28 7.10456 28.8954 8 30 8C31.1046 8 32 7.10456 32 6C32 4.89544 31.1046 4 30 4ZM18 28C16.8954 28 16 28.8954 16 30C16 31.1046 16.8954 32 18 32C19.1046 32 20 31.1046 20 30C20 28.8954 19.1046 28 18 28Z" fill="white"/>
</svg>
