<svg width="60" height="54" viewBox="0 0 60 54" fill="none" xmlns="http://www.w3.org/2000/svg">
<path d="M35.8335 22.3177C34.7596 21.2435 33.0183 21.2435 31.9444 22.3177L29.9999 24.2622C27.8519 26.41 24.3695 26.41 22.2216 24.2622C20.0737 22.1142 20.0737 18.6318 22.2216 16.4839L37.7059 0.995499C43.4917 -0.313364 49.8021 1.28444 54.3066 5.78894C60.9599 12.4422 61.2718 23.0354 55.2427 30.0581L49.4451 35.9294L35.8335 22.3177ZM5.69299 5.78894C11.6698 -0.187881 20.8262 -1.04734 27.7174 3.21057L18.3325 12.5948C14.0368 16.8906 14.0368 23.8555 18.3325 28.1513C22.4981 32.3167 29.1735 32.4429 33.491 28.5299L33.8889 28.1513L45.5561 39.8184L33.8889 51.4858C31.7409 53.6336 28.2586 53.6336 26.1108 51.4858L5.69299 31.0679C-1.28764 24.0873 -1.28764 12.7695 5.69299 5.78894Z" fill="#3D4649"/>
</svg>
