<svg width="42" height="44" viewBox="0 0 42 44" fill="none" xmlns="http://www.w3.org/2000/svg">
<path d="M4.33335 10.7978V37.5145L14.8849 32.9925L27.385 39.2425L37.6667 34.836V8.1192L40.3813 6.95579C40.9102 6.72916 41.5225 6.9741 41.7492 7.50289C41.8046 7.63256 41.8334 7.77216 41.8334 7.91322V37.5835L27.25 43.8335L14.75 37.5835L1.61869 43.2112C1.0899 43.4379 0.477541 43.1929 0.250916 42.6641C0.195333 42.5345 0.166687 42.3947 0.166687 42.2537V12.5835L4.33335 10.7978ZM29.8388 21.4222L21 30.2612L12.1612 21.4222C7.27962 16.5408 7.27962 8.62622 12.1612 3.74466C17.0427 -1.13689 24.9573 -1.13689 29.8388 3.74466C34.7204 8.62622 34.7204 16.5408 29.8388 21.4222ZM21 24.3687L26.8925 18.4761C30.1469 15.2217 30.1469 9.94531 26.8925 6.69093C23.6381 3.43658 18.3619 3.43658 15.1075 6.69093C11.8531 9.94531 11.8531 15.2217 15.1075 18.4761L21 24.3687Z" fill="white"/>
</svg>
