<svg width="46" height="45" viewBox="0 0 46 45" fill="none" xmlns="http://www.w3.org/2000/svg">
<path d="M28 40H40.5V5H5.5V40H23V27.5H18V22.5H23V18.3645C23 15.0214 23.348 13.809 24.0017 12.5868C24.6555 11.3646 25.6145 10.4054 26.8368 9.75175C27.7935 9.2401 28.9805 8.9313 31.0542 8.79885C31.8775 8.74627 32.9427 8.81332 34.25 9V13.75H33C30.7068 13.75 29.7605 13.8583 29.1947 14.1608C28.844 14.3485 28.5985 14.594 28.4107 14.9448C28.1082 15.5105 28 16.0713 28 18.3645V22.5H34.25L33 27.5H28V40ZM3 0H43C44.3807 0 45.5 1.1193 45.5 2.5V42.5C45.5 43.8807 44.3807 45 43 45H3C1.6193 45 0.5 43.8807 0.5 42.5V2.5C0.5 1.1193 1.6193 0 3 0Z" fill="white"/>
</svg>
