<svg width="40" height="40" viewBox="0 0 40 40" fill="none" xmlns="http://www.w3.org/2000/svg">
<path fill-rule="evenodd" clip-rule="evenodd" d="M20 34C20.4899 34.0001 20.9627 34.1799 21.3287 34.5054C21.6948 34.831 21.9287 35.2795 21.986 35.766L22 36V38C21.9994 38.5098 21.8042 39.0001 21.4543 39.3707C21.1044 39.7414 20.6261 39.9645 20.1172 39.9943C19.6083 40.0242 19.1072 39.8587 18.7163 39.5315C18.3254 39.2043 18.0742 38.7402 18.014 38.234L18 38V36C18 35.4696 18.2107 34.9609 18.5858 34.5858C18.9609 34.2107 19.4696 34 20 34ZM10.1 29.9C10.4749 30.2751 10.6856 30.7837 10.6856 31.314C10.6856 31.8443 10.4749 32.3529 10.1 32.728L8.686 34.142C8.50151 34.333 8.28082 34.4854 8.03681 34.5902C7.7928 34.695 7.53036 34.7502 7.2648 34.7525C6.99924 34.7548 6.73589 34.7042 6.49009 34.6036C6.2443 34.5031 6.021 34.3546 5.83321 34.1668C5.64542 33.979 5.49692 33.7557 5.39636 33.5099C5.29579 33.2641 5.24519 33.0008 5.2475 32.7352C5.24981 32.4696 5.30498 32.2072 5.4098 31.9632C5.51462 31.7192 5.66698 31.4985 5.858 31.314L7.272 29.9C7.64706 29.5251 8.15567 29.3144 8.686 29.3144C9.21633 29.3144 9.72495 29.5251 10.1 29.9ZM32.728 29.9L34.142 31.314C34.5063 31.6912 34.7079 32.1964 34.7033 32.7208C34.6988 33.2452 34.4885 33.7468 34.1176 34.1176C33.7468 34.4885 33.2452 34.6988 32.7208 34.7033C32.1964 34.7079 31.6912 34.5063 31.314 34.142L29.9 32.728C29.5357 32.3508 29.3341 31.8456 29.3387 31.3212C29.3432 30.7968 29.5535 30.2952 29.9244 29.9244C30.2952 29.5535 30.7968 29.3432 31.3212 29.3387C31.8456 29.3341 32.3508 29.5357 32.728 29.9ZM21.234 9.49547e-08C22.2091 -0.000212265 23.1507 0.355778 23.8818 1.00105C24.6129 1.64631 25.0831 2.53641 25.204 3.504L25.964 9.584C28.2593 10.8986 30.056 12.9349 31.0746 15.376C32.0932 17.8172 32.2767 20.5266 31.5965 23.0828C30.9163 25.639 29.4105 27.8988 27.3134 29.5109C25.2162 31.123 22.6452 31.997 20 31.997C17.3548 31.997 14.7838 31.123 12.6866 29.5109C10.5895 27.8988 9.08373 25.639 8.40353 23.0828C7.72334 20.5266 7.9068 17.8172 8.9254 15.376C9.944 12.9349 11.7407 10.8986 14.036 9.584L14.796 3.504C14.9169 2.53641 15.3871 1.64631 16.1182 1.00105C16.8493 0.355778 17.7909 -0.000212265 18.766 9.49547e-08H21.234ZM20 12C17.8783 12 15.8434 12.8429 14.3431 14.3431C12.8429 15.8434 12 17.8783 12 20C12 22.1217 12.8429 24.1566 14.3431 25.6569C15.8434 27.1571 17.8783 28 20 28C22.1217 28 24.1566 27.1571 25.6569 25.6569C27.1571 24.1566 28 22.1217 28 20C28 17.8783 27.1571 15.8434 25.6569 14.3431C24.1566 12.8429 22.1217 12 20 12ZM4 18C4.53043 18 5.03914 18.2107 5.41421 18.5858C5.78929 18.9609 6 19.4696 6 20C6 20.5304 5.78929 21.0391 5.41421 21.4142C5.03914 21.7893 4.53043 22 4 22H2C1.46957 22 0.960859 21.7893 0.585786 21.4142C0.210714 21.0391 0 20.5304 0 20C0 19.4696 0.210714 18.9609 0.585786 18.5858C0.960859 18.2107 1.46957 18 2 18H4ZM38 18C38.5304 18 39.0391 18.2107 39.4142 18.5858C39.7893 18.9609 40 19.4696 40 20C40 20.5304 39.7893 21.0391 39.4142 21.4142C39.0391 21.7893 38.5304 22 38 22H36C35.4696 22 34.9609 21.7893 34.5858 21.4142C34.2107 21.0391 34 20.5304 34 20C34 19.4696 34.2107 18.9609 34.5858 18.5858C34.9609 18.2107 35.4696 18 36 18H38ZM34.142 5.86C34.5169 6.23505 34.7276 6.74367 34.7276 7.274C34.7276 7.80433 34.5169 8.31294 34.142 8.688L32.728 10.102C32.5435 10.293 32.3228 10.4454 32.0788 10.5502C31.8348 10.655 31.5724 10.7102 31.3068 10.7125C31.0412 10.7148 30.7779 10.6642 30.5321 10.5636C30.2863 10.4631 30.063 10.3146 29.8752 10.1268C29.6874 9.939 29.5389 9.7157 29.4384 9.46991C29.3378 9.22412 29.2872 8.96076 29.2895 8.6952C29.2918 8.42964 29.347 8.1672 29.4518 7.92319C29.5566 7.67918 29.709 7.45849 29.9 7.274L31.314 5.86C31.6891 5.48506 32.1977 5.27443 32.728 5.27443C33.2583 5.27443 33.7669 5.48506 34.142 5.86ZM8.686 5.86L10.1 7.274C10.4553 7.6529 10.6493 8.15517 10.6408 8.67454C10.6324 9.1939 10.4222 9.68962 10.0548 10.0568C9.68739 10.4239 9.19153 10.6338 8.67216 10.6418C8.15279 10.6499 7.65065 10.4556 7.272 10.1L5.858 8.686C5.50269 8.3071 5.30873 7.80483 5.31716 7.28546C5.3256 6.7661 5.53576 6.27038 5.90319 5.90322C6.27061 5.53605 6.76647 5.32624 7.28584 5.31817C7.80521 5.31011 8.30735 5.50442 8.686 5.86ZM21.234 4H18.766L18.266 8H21.734L21.234 4Z" fill="white"/>
</svg>
