<svg width="50" height="41" viewBox="0 0 50 41" fill="none" xmlns="http://www.w3.org/2000/svg">
<path d="M44.0172 7.98705C43.8267 7.24238 43.288 6.68053 42.671 6.5072C41.5747 6.20155 36.2525 5.5 25.0025 5.5C13.7524 5.5 8.43129 6.20183 7.33062 6.50808C6.71939 6.67808 6.18074 7.23983 5.98774 7.98705C5.71574 9.04808 5.00244 13.4899 5.00244 20.5C5.00244 27.51 5.71574 31.952 5.98849 33.016C6.17814 33.7577 6.71689 34.3195 7.33127 34.492C8.43129 34.7982 13.7524 35.5 25.0025 35.5C36.2525 35.5 41.5747 34.7985 42.6742 34.492C43.2855 34.322 43.8242 33.7603 44.0172 33.013C44.2892 31.952 45.0025 27.5 45.0025 20.5C45.0025 13.5 44.2892 9.04808 44.0172 7.98705ZM48.8605 6.74545C50.0025 11.2 50.0025 20.5 50.0025 20.5C50.0025 20.5 50.0025 29.8 48.8605 34.2545C48.2242 36.7183 46.3675 38.6545 44.014 39.309C39.7427 40.5 25.0025 40.5 25.0025 40.5C25.0025 40.5 10.2709 40.5 5.99092 39.309C3.62864 38.6455 1.77197 36.709 1.14434 34.2545C0.00244185 29.8 0.00244141 20.5 0.00244141 20.5C0.00244141 20.5 0.00244185 11.2 1.14434 6.74545C1.78067 4.28182 3.63737 2.34545 5.99092 1.6909C10.2709 0.5 25.0025 0.5 25.0025 0.5C25.0025 0.5 39.7427 0.5 44.014 1.6909C46.3762 2.35455 48.233 4.2909 48.8605 6.74545ZM20.0025 29.25V11.75L35.0025 20.5L20.0025 29.25Z" fill="white"/>
</svg>
