<svg width="50" height="51" viewBox="0 0 50 51" fill="none" xmlns="http://www.w3.org/2000/svg">
<path d="M25.0025 18C20.859 18 17.5024 21.3577 17.5024 25.5C17.5024 29.6432 20.8602 33 25.0025 33C29.1457 33 32.5025 29.6422 32.5025 25.5C32.5025 21.3567 29.1447 18 25.0025 18ZM25.0025 13C31.9035 13 37.5025 18.5927 37.5025 25.5C37.5025 32.4012 31.9097 38 25.0025 38C18.1013 38 12.5024 32.4072 12.5024 25.5C12.5024 18.5988 18.0952 13 25.0025 13ZM41.2525 12.3729C41.2525 14.0981 39.8505 15.4979 38.1275 15.4979C36.4022 15.4979 35.0025 14.096 35.0025 12.3729C35.0025 10.6497 36.4042 9.25 38.1275 9.25C39.8482 9.24782 41.2525 10.6497 41.2525 12.3729ZM25.0025 5.5C18.8162 5.5 17.8079 5.51637 14.9307 5.6445C12.9704 5.73652 11.6563 6.00017 10.4354 6.47417C9.35039 6.89497 8.56772 7.39745 7.73379 8.23137C6.89667 9.0685 6.39509 9.84907 5.97599 10.9346C5.50089 12.1583 5.23732 13.4703 5.14694 15.4279C5.01757 18.188 5.00244 19.1526 5.00244 25.5C5.00244 31.6862 5.01882 32.6945 5.14692 35.5715C5.23899 37.531 5.50299 38.847 5.97584 40.065C6.39774 41.1515 6.90124 41.936 7.73114 42.766C8.57157 43.6052 9.35447 44.1085 10.4297 44.5235C11.6655 45.0012 12.9787 45.2652 14.9303 45.3555C17.6904 45.4847 18.6551 45.5 25.0025 45.5C31.1887 45.5 32.197 45.4835 35.074 45.3555C37.0292 45.2637 38.3462 44.999 39.5675 44.5265C40.651 44.1057 41.438 43.6005 42.2685 42.7712C43.109 41.9295 43.6112 41.1485 44.0267 40.0707C44.5032 38.8395 44.7677 37.5245 44.858 35.5722C44.9872 32.812 45.0025 31.8472 45.0025 25.5C45.0025 19.3138 44.986 18.3055 44.858 15.4284C44.766 13.4726 44.5012 12.1537 44.0282 10.9329C43.6085 9.85095 43.1042 9.06587 42.271 8.23137C41.4325 7.39287 40.654 6.89232 39.5677 6.47355C38.345 5.99885 37.031 5.7349 35.0745 5.64452C32.3145 5.51512 31.3497 5.5 25.0025 5.5ZM25.0025 0.5C31.794 0.5 32.642 0.525 35.3087 0.65C37.969 0.772925 39.7837 1.19375 41.3775 1.8125C43.0252 2.44793 44.417 3.30625 45.8065 4.69582C47.194 6.08542 48.0525 7.48125 48.69 9.125C49.3065 10.7167 49.7275 12.5333 49.8525 15.1937C49.9712 17.8604 50.0025 18.7083 50.0025 25.5C50.0025 32.2917 49.9775 33.1395 49.8525 35.8062C49.7295 38.4667 49.3065 40.2812 48.69 41.875C48.0545 43.523 47.194 44.9145 45.8065 46.3042C44.417 47.6917 43.019 48.55 41.3775 49.1875C39.7837 49.8042 37.969 50.225 35.3087 50.35C32.642 50.4687 31.794 50.5 25.0025 50.5C18.2108 50.5 17.3628 50.475 14.6962 50.35C12.0358 50.227 10.2233 49.8042 8.62744 49.1875C6.98159 48.552 5.58784 47.6917 4.19827 46.3042C2.80869 44.9145 1.95244 43.5167 1.31494 41.875C0.696192 40.2812 0.277442 38.4667 0.152442 35.8062C0.0336919 33.1395 0.00244141 32.2917 0.00244141 25.5C0.00244141 18.7083 0.0274419 17.8604 0.152442 15.1937C0.275342 12.5312 0.696192 10.7187 1.31494 9.125C1.95034 7.47917 2.80869 6.08542 4.19827 4.69582C5.58784 3.30625 6.98369 2.45 8.62744 1.8125C10.2212 1.19375 12.0337 0.775 14.6962 0.65C17.3628 0.53125 18.2108 0.5 25.0025 0.5Z" fill="white"/>
</svg>
