<svg width="39" height="40" viewBox="0 0 39 40" fill="none" xmlns="http://www.w3.org/2000/svg">
<path d="M19.5 21C20.0523 21 20.5 20.5523 20.5 20C20.5 19.4477 20.0523 19 19.5 19C18.9477 19 18.5 19.4477 18.5 20C18.5 20.5523 18.9477 21 19.5 21Z" fill="white" stroke="white" stroke-width="2" stroke-linecap="round" stroke-linejoin="round"/>
<path d="M5.5 20C5.5 21.8385 5.86212 23.659 6.56569 25.3576C7.26925 27.0561 8.30048 28.5995 9.6005 29.8995C10.9005 31.1995 12.4439 32.2307 14.1424 32.9343C15.841 33.6379 17.6615 34 19.5 34M5.5 20C5.5 18.1615 5.86212 16.341 6.56569 14.6424C7.26925 12.9439 8.30048 11.4005 9.6005 10.1005C10.9005 8.80048 12.4439 7.76925 14.1424 7.06569C15.841 6.36212 17.6615 6 19.5 6M5.5 20H1.5M19.5 34C21.3385 34 23.159 33.6379 24.8576 32.9343C26.5561 32.2307 28.0995 31.1995 29.3995 29.8995C30.6995 28.5995 31.7307 27.0561 32.4343 25.3576C33.1379 23.659 33.5 21.8385 33.5 20M19.5 34V38M33.5 20C33.5 18.1615 33.1379 16.341 32.4343 14.6424C31.7307 12.9439 30.6995 11.4005 29.3995 10.1005C28.0995 8.80048 26.5561 7.76925 24.8576 7.06569C23.159 6.36212 21.3385 6 19.5 6M33.5 20H37.5M19.5 6V2" stroke="white" stroke-width="3" stroke-linecap="round" stroke-linejoin="round"/>
</svg>
