<svg width="43" height="38" viewBox="0 0 43 38" fill="none" xmlns="http://www.w3.org/2000/svg">
<path d="M40.25 37.75H2.74996C1.59938 37.75 0.666626 36.8173 0.666626 35.6667V20.0142C0.666626 19.4121 0.927063 18.8394 1.38083 18.4437L8.99996 11.8007V2.33333C8.99996 1.18275 9.93271 0.25 11.0833 0.25H40.25C41.4006 0.25 42.3333 1.18275 42.3333 2.33333V35.6667C42.3333 36.8173 41.4006 37.75 40.25 37.75ZM15.25 33.5833H21.5V20.9617L13.1666 13.6959L4.83329 20.9617V33.5833H11.0833V25.25H15.25V33.5833ZM25.6666 33.5833H38.1666V4.41667H13.1666V8.84852C13.655 8.84852 14.1435 9.01954 14.5358 9.36156L24.9525 18.4437C25.4062 18.8394 25.6666 19.4121 25.6666 20.0142V33.5833ZM29.8333 16.9167H34V21.0833H29.8333V16.9167ZM29.8333 25.25H34V29.4167H29.8333V25.25ZM29.8333 8.58333H34V12.75H29.8333V8.58333ZM21.5 8.58333H25.6666V12.75H21.5V8.58333Z" fill="#0F218B"/>
</svg>
