<svg width="50" height="58" viewBox="0 0 50 58" fill="none" xmlns="http://www.w3.org/2000/svg">
<path d="M41.5 16.75C41.5 17.4716 41.4538 18.1824 41.3639 18.8795C46.3708 21.7126 49.75 27.0867 49.75 33.25C49.75 42.3627 42.3627 49.75 33.25 49.75C31.3214 49.75 29.4704 49.4192 27.75 48.8111V58H22.25V48.1008C20.1872 49.1552 17.8506 49.75 15.375 49.75C7.02168 49.75 0.25 42.9784 0.25 34.625C0.25 30.6304 1.79858 26.9973 4.32817 24.2937C5.41244 27.2638 7.11796 29.9346 9.28584 32.147L13.2142 28.2975C11.2245 26.2669 9.75689 23.7286 9.02415 20.8939C8.68169 19.5699 8.5 18.1811 8.5 16.75C8.5 7.6373 15.8873 0.25 25 0.25C34.1127 0.25 41.5 7.6373 41.5 16.75Z" fill="#0F218B"/>
</svg>
