<svg width="63" height="51" viewBox="0 0 63 51" fill="none" xmlns="http://www.w3.org/2000/svg">
<path d="M23.671 24.131L29.6385 24.1323C36.4731 24.1323 42.0135 29.6728 42.0135 36.5073L22.7607 36.5049L22.7634 39.2573L44.7635 39.2551V36.5073C44.7635 33.5305 43.8884 30.7238 42.3267 28.2551L50.2635 28.2573C55.7423 28.2573 60.4726 31.4616 62.6828 36.0987C56.1796 44.6803 45.6487 50.2573 33.7635 50.2573C26.1699 50.2573 19.737 48.6332 14.5123 45.7891L14.5163 20.2026C17.9416 20.6932 21.0759 22.0852 23.671 24.131ZM9.01343 17.2573C10.4237 17.2573 11.5861 18.3189 11.7449 19.6866L11.7634 20.0049V44.7573C11.7634 46.2762 10.5322 47.5073 9.01343 47.5073H3.51343C1.99466 47.5073 0.763428 46.2762 0.763428 44.7573V20.0073C0.763428 18.4885 1.99466 17.2573 3.51343 17.2573H9.01343ZM35.5411 2.33957L36.5127 3.31243L37.4856 2.33957C40.1704 -0.345285 44.5237 -0.345285 47.2085 2.33957C49.8933 5.02442 49.8933 9.37742 47.2085 12.0623L36.5135 22.7573L25.8185 12.0623C23.1336 9.37742 23.1336 5.02442 25.8185 2.33957C28.5033 -0.345285 32.8563 -0.345285 35.5411 2.33957Z" fill="white"/>
</svg>
