<svg width="50" height="50" viewBox="0 0 50 50" fill="none" xmlns="http://www.w3.org/2000/svg">
<path d="M44.0148 9.35881C43.8243 8.42797 43.2855 7.72566 42.6685 7.509C41.5723 7.12694 36.25 6.25 25 6.25C13.75 6.25 8.42884 7.12728 7.32817 7.51009C6.71694 7.72259 6.17829 8.42478 5.98529 9.35881C5.7133 10.6851 5 16.2373 5 25C5 33.7625 5.71329 39.315 5.98604 40.645C6.17569 41.5722 6.71444 42.2744 7.32882 42.49C8.42884 42.8728 13.75 43.75 25 43.75C36.25 43.75 41.5723 42.8731 42.6718 42.49C43.283 42.2775 43.8218 41.5753 44.0148 40.6412C44.2868 39.315 45 33.75 45 25C45 16.25 44.2868 10.6851 44.0148 9.35881ZM48.858 7.80681C50 13.375 50 25 50 25C50 25 50 36.625 48.858 42.1931C48.2218 45.2728 46.365 47.6931 44.0115 48.5112C39.7403 50 25 50 25 50C25 50 10.2685 50 5.98847 48.5112C3.6262 47.6819 1.76952 45.2613 1.1419 42.1931C4.47034e-07 36.625 0 25 0 25C0 25 4.47034e-07 13.375 1.1419 7.80681C1.77822 4.72728 3.63492 2.30681 5.98847 1.48862C10.2685 -4.65661e-07 25 0 25 0C25 0 39.7403 -4.65661e-07 44.0115 1.48862C46.3738 2.31819 48.2305 4.73862 48.858 7.80681ZM20 35.9375V14.0625L35 25L20 35.9375Z" fill="white"/>
</svg>
